<?xml version="1.0" encoding="UTF-8"?>
<svg id="a" data-name="Capa 1" xmlns="http://www.w3.org/2000/svg" viewBox="0 0 2042 2042">
  <rect width="2042" height="2042" style="fill: #3ddb84; stroke-width: 0px;"/>
  <path d="m1327.43,778.44l98.86-186.1c5.32-10.02,1.84-22.7-7.77-28.26-3.05-1.76-6.36-2.6-9.62-2.6-7.01,0-13.82,3.86-17.45,10.7l-99.95,188.16c-81.85-37.91-173.6-59.15-270.49-59.15s-188.64,21.24-270.49,59.15l-99.95-188.16c-5.33-10.02-17.46-13.66-27.08-8.1-9.6,5.56-13.09,18.23-7.76,28.26l98.86,186.1c-189.95,103.13-318.29,299.14-318.57,524.07h1250c-.27-224.93-128.62-420.94-318.57-524.07Zm-594.9,285.41c-28.78,0-52.2-24.44-52.2-54.47s23.42-54.47,52.2-54.47,52.2,24.44,52.2,54.47-23.42,54.47-52.2,54.47Zm576.93,0c-28.78,0-52.2-24.44-52.2-54.47s23.42-54.47,52.2-54.47,52.2,24.44,52.2,54.47-23.42,54.47-52.2,54.47Z" style="fill: #fff; stroke-width: 0px;"/>
</svg>